<svg id="Layer_1" data-name="Layer 1" xmlns="http://www.w3.org/2000/svg" viewBox="0 0 200 200">
	<defs>
		<style>
			.cls-1 {
				fill: #ffffff;
			}
		</style>
	</defs>
	<title>Wondicon - UI (Free)</title>
	<path class="cls-1" d="M160.7,175.69H39.3a15,15,0,0,1-15-15V60a15,15,0,0,1,15-15H100a5,5,0,0,1,0,10H39.3a5,5,0,0,0-5,5V160.7a5,5,0,0,0,5,5H160.7a5,5,0,0,0,5-5V150a5,5,0,0,1,10,0v10.7A15,15,0,0,1,160.7,175.69Z" />
	<path class="cls-1" d="M146.47,155a5,5,0,0,1-3.63-1.56l-23.71-25a5,5,0,0,1-1.37-3.44V29.31a5,5,0,0,1,5-5h47.41a5,5,0,0,1,5,5V125a5,5,0,0,1-1.37,3.44l-23.71,25A5,5,0,0,1,146.47,155Zm-18.71-32,18.71,19.72L165.17,123V34.31H127.76Z" />
	<path class="cls-1" d="M170.17,55H122.76a5,5,0,1,1,0-10h47.41a5,5,0,0,1,0,10Z" />
	<path class="cls-1" d="M100,92H58.67a5,5,0,0,1,0-10H100a5,5,0,0,1,0,10Z" />
	<path class="cls-1" d="M100,117H58.67a5,5,0,0,1,0-10H100a5,5,0,0,1,0,10Z" />
	<path class="cls-1" d="M100,142H58.67a5,5,0,0,1,0-10H100a5,5,0,0,1,0,10Z" />
</svg>